<?xml version="1.0" encoding="UTF-8"?>
<svg width="30px" height="30px" viewBox="0 0 30 30" version="1.1" xmlns="http://www.w3.org/2000/svg" xmlns:xlink="http://www.w3.org/1999/xlink">
    <!-- Generator: Sketch 53.2 (72643) - https://sketchapp.com -->
    <title>noun_whatsapp_988424</title>
    <desc>Created with Sketch.</desc>
    <g id="Profile" stroke="none" stroke-width="1" fill="none" fill-rule="evenodd">
        <g id="Home" transform="translate(-302.000000, -403.000000)" fill="#5BB359">
            <g id="card" transform="translate(270.000000, 365.000000)">
                <g id="Group-10">
                    <g id="noun_whatsapp_988424" transform="translate(32.000000, 38.000000)">
                        <path d="M15.0000001,0 C6.70905802,0 0,6.70533499 0,15.0000056 C0,18.128142 0.953948057,21.0216409 2.64843767,23.5078149 C2.77620589,23.6971659 2.81071703,23.934423 2.74218767,24.1523272 L1.21875018,29.2500003 L6.21093765,27.5273259 C6.42709244,27.4553661 6.66423734,27.4855551 6.85546889,27.6093759 C9.19379638,29.1266253 11.9930851,30 15.0000001,30 C23.2948692,30 30,23.2948525 30,15.0000056 C30,6.70510999 23.2948692,0 15.0000001,0 L15.0000001,0 Z M8.61696846,7.05882353 L11.2977239,11.4842889 L10.1817012,12.5877769 C9.94814453,12.8232118 9.90103366,13.18562 10.0666473,13.4728479 C11.769747,16.4193928 13.7876485,18.7117421 16.6132131,19.9558514 C16.8903265,20.0788357 17.214567,20.0195303 17.4300956,19.8064391 L18.6151506,18.62247 L22.9411765,21.3237352 C22.4621514,22.4008131 21.8376717,23.0420868 21.1233252,23.4157279 C20.2958834,23.8485894 19.2852469,23.9305418 18.1319243,23.6915999 C15.825284,23.2137528 13.0390398,21.4025978 10.768476,19.0822566 C8.49791292,16.7619523 6.74081706,13.9404694 6.29288009,11.6451774 C6.06891345,10.4975498 6.1678561,9.50919235 6.59202018,8.72556869 C6.95723985,8.0508593 7.57761037,7.47322008 8.61696846,7.05882353 L8.61696846,7.05882353 Z" id="Shape"></path>
                    </g>
                </g>
            </g>
        </g>
    </g>
</svg>